<?xml version="1.0" ?><svg enable-background="new 0 0 100 100" version="1.1" viewBox="0 0 100 100" xml:space="preserve" xmlns="http://www.w3.org/2000/svg" xmlns:xlink="http://www.w3.org/1999/xlink"><g id="Layer_12"><rect fill="#232323" height="24.446" stroke="#191919" stroke-miterlimit="10" width="1.946" x="49.027" y="51.655"/><g><path d="M62.411,60.65c-0.035,0-0.068-0.009-0.104-0.027l-11.74-6.172c-0.174-0.092-0.371-0.14-0.568-0.14    c-0.196,0-0.394,0.048-0.567,0.14l-11.739,6.172c-0.034,0.018-0.069,0.027-0.104,0.027c-0.064,0-0.129-0.031-0.172-0.083    c-0.043-0.05-0.058-0.109-0.046-0.177l2.242-13.073c0.067-0.396-0.064-0.8-0.352-1.081l-9.498-9.258    c-0.086-0.084-0.072-0.178-0.056-0.227c0.016-0.049,0.06-0.133,0.179-0.151l13.125-1.907c0.397-0.058,0.741-0.307,0.92-0.667    l5.869-11.895c0.053-0.107,0.147-0.123,0.198-0.123c0.052,0,0.146,0.016,0.199,0.123l5.87,11.894    c0.177,0.36,0.521,0.61,0.919,0.668l13.125,1.907c0.119,0.018,0.163,0.102,0.18,0.151c0.016,0.049,0.029,0.144-0.057,0.227    l-9.497,9.258c-0.288,0.281-0.419,0.685-0.352,1.081l2.242,13.072c0.012,0.067-0.004,0.127-0.046,0.177    C62.539,60.619,62.475,60.65,62.411,60.65z" fill="#F2B53B"/><path d="M50,22.86l5.62,11.387c0.251,0.508,0.735,0.86,1.296,0.942l12.567,1.826l-9.094,8.864    c-0.406,0.396-0.591,0.965-0.495,1.523l2.147,12.516l-11.24-5.909c-0.246-0.129-0.523-0.198-0.801-0.198    c-0.278,0-0.555,0.068-0.801,0.198l-11.24,5.909l2.146-12.516c0.096-0.559-0.089-1.128-0.495-1.524l-9.093-8.864l12.567-1.826    c0.561-0.081,1.045-0.433,1.296-0.942L50,22.86 M50,21.509c-0.257,0-0.515,0.134-0.647,0.402l-5.87,11.893    c-0.105,0.213-0.308,0.361-0.543,0.395l-13.125,1.907c-0.592,0.086-0.828,0.813-0.4,1.231l9.497,9.258    c0.17,0.166,0.248,0.405,0.207,0.639l-2.242,13.072c-0.08,0.466,0.291,0.845,0.711,0.845c0.111,0,0.225-0.026,0.336-0.084    l11.74-6.172c0.105-0.055,0.22-0.083,0.336-0.083c0.115,0,0.231,0.028,0.336,0.083l11.74,6.172    c0.11,0.058,0.225,0.084,0.336,0.084c0.42,0,0.791-0.379,0.711-0.845L60.88,47.233c-0.04-0.234,0.037-0.473,0.207-0.639    l9.498-9.258c0.428-0.417,0.192-1.145-0.4-1.231L57.06,34.199c-0.235-0.034-0.438-0.182-0.543-0.395l-5.87-11.893    C50.515,21.643,50.257,21.509,50,21.509L50,21.509z" fill="#191919"/></g><g><path d="M50,29.537l3.521,7.134c0.217,0.44,0.636,0.744,1.121,0.815l7.873,1.144l-5.697,5.553    c-0.351,0.342-0.511,0.835-0.428,1.318l1.345,7.841l-7.042-3.702c-0.213-0.112-0.452-0.171-0.693-0.171    c-0.241,0-0.48,0.059-0.693,0.171l-7.041,3.702L43.61,45.5c0.083-0.483-0.077-0.976-0.428-1.318l-5.697-5.553l7.873-1.144    c0.485-0.07,0.904-0.375,1.121-0.815L50,29.537 M50,27.894c-0.174,0-0.349,0.091-0.439,0.273l-3.979,8.062    c-0.071,0.144-0.209,0.244-0.368,0.268l-8.897,1.293c-0.401,0.058-0.561,0.551-0.271,0.834l6.438,6.276    c0.115,0.112,0.168,0.274,0.141,0.433l-1.52,8.861c-0.054,0.316,0.197,0.573,0.482,0.573c0.075,0,0.153-0.018,0.228-0.057    l7.958-4.184c0.071-0.037,0.149-0.056,0.228-0.056c0.078,0,0.156,0.019,0.228,0.056l7.958,4.184    c0.075,0.039,0.152,0.057,0.228,0.057c0.285,0,0.536-0.257,0.482-0.573l-1.52-8.861c-0.027-0.159,0.025-0.321,0.141-0.433    l6.438-6.276c0.29-0.283,0.13-0.776-0.271-0.834l-8.897-1.293c-0.159-0.023-0.297-0.123-0.368-0.268l-3.979-8.062    C50.349,27.984,50.174,27.894,50,27.894L50,27.894z" fill="#C48B26"/></g><g><path d="M32.578,77.991c-0.38,0-0.689-0.309-0.689-0.689v-3.02c0-0.38,0.31-0.689,0.689-0.689h34.844    c0.38,0,0.689,0.309,0.689,0.689v3.02c0,0.38-0.31,0.689-0.689,0.689H32.578z" fill="#5B5B5B"/><path d="M67.422,74.092c0.104,0,0.19,0.085,0.19,0.19v3.02c0,0.105-0.085,0.19-0.19,0.19H32.578    c-0.104,0-0.19-0.085-0.19-0.19v-3.02c0-0.105,0.085-0.19,0.19-0.19H67.422 M67.422,73.092H32.578c-0.657,0-1.19,0.533-1.19,1.19    v3.02c0,0.657,0.533,1.19,1.19,1.19h34.844c0.657,0,1.19-0.533,1.19-1.19v-3.02C68.612,73.625,68.079,73.092,67.422,73.092    L67.422,73.092z" fill="#191919"/></g></g></svg>