<svg id="Layer_1" data-name="Layer 1" xmlns="http://www.w3.org/2000/svg" viewBox="0 0 64 64"><title>popcorn</title><path d="M52.45,29.67A1.55,1.55,0,0,0,54,28.12v-.91a1.55,1.55,0,0,0-1.55-1.55H11.55A1.55,1.55,0,0,0,10,27.21v.91a1.55,1.55,0,0,0,1.55,1.55h.16a1.55,1.55,0,0,1,1.51,1.2l6.25,26.89a2.48,2.48,0,0,0,2.42,1.92H42.46a2.48,2.48,0,0,0,2.42-1.94l6-26.85a1.55,1.55,0,0,1,1.51-1.21ZM30.23,44.22a1.94,1.94,0,0,1-.7.34.61.61,0,0,0-.38.3,1.93,1.93,0,0,1-.5.59,2,2,0,0,1-3.06-2.36,2,2,0,0,1-.18-.19,2,2,0,0,1,3.16-2.45,2,2,0,0,1,.14.22,2,2,0,0,1,1.52,3.55Zm4.31-11.1a1.94,1.94,0,0,1-.32.71.61.61,0,0,0-.1.47,1.94,1.94,0,0,1,0,.77,2,2,0,0,1-3.86.14l-.26,0a2,2,0,1,1,.87-3.9l.25.08a2,2,0,0,1,3.44,1.76ZM44,35a1.94,1.94,0,0,1-.77,0,.61.61,0,0,0-.47.12,1.94,1.94,0,0,1-.7.34,2,2,0,0,1-1.88-3.38,2,2,0,0,1-.09-.25A2,2,0,1,1,44,31.15,2,2,0,0,1,44,35Z"/><path d="M11.5,21.67a2,2,0,0,0,2,2,1.94,1.94,0,0,0,.76-.16.61.61,0,0,1,.48,0,1.94,1.94,0,0,0,.76.16,2,2,0,0,0,1-3.74,2,2,0,0,0,0-.26,2,2,0,0,0-4,0,2,2,0,0,0,0,.26A2,2,0,0,0,11.5,21.67Z"/><path d="M18.5,21.67a2,2,0,0,0,2,2,1.94,1.94,0,0,0,.76-.16.61.61,0,0,1,.48,0,1.94,1.94,0,0,0,.76.16,2,2,0,0,0,1-3.74,2,2,0,0,0,0-.26,2,2,0,0,0-4,0,2,2,0,0,0,0,.26A2,2,0,0,0,18.5,21.67Z"/><path d="M25.5,21.67a2,2,0,0,0,2,2,1.94,1.94,0,0,0,.76-.16.61.61,0,0,1,.48,0,1.94,1.94,0,0,0,.76.16,2,2,0,0,0,1-3.74,2,2,0,0,0,0-.26,2,2,0,0,0-4,0,2,2,0,0,0,0,.26A2,2,0,0,0,25.5,21.67Z"/><path d="M32.5,21.67a2,2,0,0,0,2,2,1.94,1.94,0,0,0,.76-.16.61.61,0,0,1,.48,0,1.94,1.94,0,0,0,.76.16,2,2,0,0,0,1-3.74,2,2,0,0,0,0-.26,2,2,0,0,0-4,0,2,2,0,0,0,0,.26A2,2,0,0,0,32.5,21.67Z"/><path d="M39.5,21.67a2,2,0,0,0,2,2,1.94,1.94,0,0,0,.76-.16.61.61,0,0,1,.48,0,1.94,1.94,0,0,0,.76.16,2,2,0,0,0,1-3.74,2,2,0,0,0,0-.26,2,2,0,0,0-4,0,2,2,0,0,0,0,.26A2,2,0,0,0,39.5,21.67Z"/><path d="M49.5,17.67a2,2,0,0,0-2,2,2,2,0,0,0,0,.26,2,2,0,0,0,1,3.74,1.94,1.94,0,0,0,.76-.16.61.61,0,0,1,.48,0,1.94,1.94,0,0,0,.76.16,2,2,0,0,0,1-3.74,2,2,0,0,0,0-.26A2,2,0,0,0,49.5,17.67Z"/><path d="M15,15a2,2,0,0,0,2,2,1.94,1.94,0,0,0,.76-.16.61.61,0,0,1,.48,0A1.94,1.94,0,0,0,19,17a2,2,0,0,0,1-3.74A2,2,0,0,0,20,13a2,2,0,0,0-4,0,2,2,0,0,0,0,.26A2,2,0,0,0,15,15Z"/><path d="M23,13a2,2,0,0,0,0,.26A2,2,0,0,0,24,17a1.94,1.94,0,0,0,.76-.16.61.61,0,0,1,.48,0A1.94,1.94,0,0,0,26,17a2,2,0,0,0,1-3.74A2,2,0,0,0,27,13a2,2,0,0,0-4,0Z"/><path d="M30,13a2,2,0,0,0,0,.26A2,2,0,0,0,31,17a1.94,1.94,0,0,0,.76-.16.61.61,0,0,1,.48,0A1.94,1.94,0,0,0,33,17a2,2,0,0,0,1-3.74A2,2,0,0,0,34,13a2,2,0,0,0-4,0Z"/><path d="M37,13a2,2,0,0,0,0,.26A2,2,0,0,0,38,17a1.94,1.94,0,0,0,.76-.16.61.61,0,0,1,.48,0A1.94,1.94,0,0,0,40,17a2,2,0,0,0,1-3.74A2,2,0,0,0,41,13a2,2,0,0,0-4,0Z"/><path d="M46,11a2,2,0,0,0-2,2,2,2,0,0,0,0,.26A2,2,0,0,0,45,17a1.94,1.94,0,0,0,.76-.16.61.61,0,0,1,.48,0A1.94,1.94,0,0,0,47,17a2,2,0,0,0,1-3.74A2,2,0,0,0,48,13,2,2,0,0,0,46,11Z"/><path d="M18.5,8.33a2,2,0,0,0,2,2,1.94,1.94,0,0,0,.76-.16.61.61,0,0,1,.48,0,1.94,1.94,0,0,0,.76.16,2,2,0,0,0,1-3.74,2,2,0,0,0,0-.26,2,2,0,0,0-4,0,2,2,0,0,0,0,.26A2,2,0,0,0,18.5,8.33Z"/><path d="M25.5,8.33a2,2,0,0,0,2,2,1.94,1.94,0,0,0,.76-.16.61.61,0,0,1,.48,0,1.94,1.94,0,0,0,.76.16,2,2,0,0,0,1-3.74,2,2,0,0,0,0-.26,2,2,0,0,0-4,0,2,2,0,0,0,0,.26A2,2,0,0,0,25.5,8.33Z"/><path d="M32.5,8.33a2,2,0,0,0,2,2,1.94,1.94,0,0,0,.76-.16.61.61,0,0,1,.48,0,1.94,1.94,0,0,0,.76.16,2,2,0,0,0,1-3.74,2,2,0,0,0,0-.26,2,2,0,0,0-4,0,2,2,0,0,0,0,.26A2,2,0,0,0,32.5,8.33Z"/><path d="M39.5,8.33a2,2,0,0,0,2,2,1.94,1.94,0,0,0,.76-.16.61.61,0,0,1,.48,0,1.94,1.94,0,0,0,.76.16,2,2,0,0,0,1-3.74,2,2,0,0,0,0-.26,2,2,0,0,0-4,0,2,2,0,0,0,0,.26A2,2,0,0,0,39.5,8.33Z"/></svg>